<mxfile host="app.diagrams.net" modified="2022-11-24T10:18:40.930Z" agent="5.0 (Windows NT 10.0; Win64; x64) AppleWebKit/537.36 (KHTML, like Gecko) Chrome/107.0.0.0 Safari/537.36" etag="uysrCY3n50ugl9-zAZ5l" version="20.5.3" type="github">
  <diagram id="tjhymvLZdjS9p6q_tBqy" name="第 1 页">
    <mxGraphModel dx="741" dy="391" grid="1" gridSize="10" guides="1" tooltips="1" connect="1" arrows="1" fold="1" page="1" pageScale="1" pageWidth="827" pageHeight="1169" math="0" shadow="0">
      <root>
        <mxCell id="0" />
        <mxCell id="1" parent="0" />
        <mxCell id="aALrUmLxRWbmeuW2mngF-3" style="edgeStyle=orthogonalEdgeStyle;rounded=0;orthogonalLoop=1;jettySize=auto;html=1;exitX=0.5;exitY=1;exitDx=0;exitDy=0;entryX=0.5;entryY=1;entryDx=0;entryDy=0;" edge="1" parent="1" source="aALrUmLxRWbmeuW2mngF-1" target="aALrUmLxRWbmeuW2mngF-2">
          <mxGeometry relative="1" as="geometry" />
        </mxCell>
        <mxCell id="aALrUmLxRWbmeuW2mngF-9" style="edgeStyle=orthogonalEdgeStyle;rounded=0;orthogonalLoop=1;jettySize=auto;html=1;exitX=0.5;exitY=1;exitDx=0;exitDy=0;entryX=0.5;entryY=1;entryDx=0;entryDy=0;" edge="1" parent="1" source="aALrUmLxRWbmeuW2mngF-1" target="aALrUmLxRWbmeuW2mngF-4">
          <mxGeometry relative="1" as="geometry" />
        </mxCell>
        <mxCell id="aALrUmLxRWbmeuW2mngF-10" style="edgeStyle=orthogonalEdgeStyle;rounded=0;orthogonalLoop=1;jettySize=auto;html=1;exitX=0.5;exitY=1;exitDx=0;exitDy=0;entryX=0.5;entryY=1;entryDx=0;entryDy=0;" edge="1" parent="1" source="aALrUmLxRWbmeuW2mngF-1" target="aALrUmLxRWbmeuW2mngF-5">
          <mxGeometry relative="1" as="geometry" />
        </mxCell>
        <mxCell id="aALrUmLxRWbmeuW2mngF-11" style="edgeStyle=orthogonalEdgeStyle;rounded=0;orthogonalLoop=1;jettySize=auto;html=1;exitX=0.5;exitY=1;exitDx=0;exitDy=0;entryX=0.5;entryY=1;entryDx=0;entryDy=0;" edge="1" parent="1" source="aALrUmLxRWbmeuW2mngF-1" target="aALrUmLxRWbmeuW2mngF-6">
          <mxGeometry relative="1" as="geometry" />
        </mxCell>
        <mxCell id="aALrUmLxRWbmeuW2mngF-12" style="edgeStyle=orthogonalEdgeStyle;rounded=0;orthogonalLoop=1;jettySize=auto;html=1;exitX=0.5;exitY=1;exitDx=0;exitDy=0;entryX=0.5;entryY=1;entryDx=0;entryDy=0;" edge="1" parent="1" source="aALrUmLxRWbmeuW2mngF-1" target="aALrUmLxRWbmeuW2mngF-7">
          <mxGeometry relative="1" as="geometry" />
        </mxCell>
        <mxCell id="aALrUmLxRWbmeuW2mngF-13" style="edgeStyle=orthogonalEdgeStyle;rounded=0;orthogonalLoop=1;jettySize=auto;html=1;exitX=0.5;exitY=1;exitDx=0;exitDy=0;entryX=0.5;entryY=1;entryDx=0;entryDy=0;" edge="1" parent="1" source="aALrUmLxRWbmeuW2mngF-1" target="aALrUmLxRWbmeuW2mngF-8">
          <mxGeometry relative="1" as="geometry" />
        </mxCell>
        <mxCell id="aALrUmLxRWbmeuW2mngF-1" value="数据源管理" style="rounded=0;whiteSpace=wrap;html=1;" vertex="1" parent="1">
          <mxGeometry x="360" y="90" width="120" height="60" as="geometry" />
        </mxCell>
        <mxCell id="aALrUmLxRWbmeuW2mngF-2" value="新增数据源" style="rounded=0;whiteSpace=wrap;html=1;direction=west;horizontal=0;" vertex="1" parent="1">
          <mxGeometry x="150" y="230" width="70" height="110" as="geometry" />
        </mxCell>
        <mxCell id="aALrUmLxRWbmeuW2mngF-4" value="修改数据源" style="rounded=0;whiteSpace=wrap;html=1;direction=west;horizontal=0;" vertex="1" parent="1">
          <mxGeometry x="240" y="230" width="70" height="110" as="geometry" />
        </mxCell>
        <mxCell id="aALrUmLxRWbmeuW2mngF-5" value="删除数据源" style="rounded=0;whiteSpace=wrap;html=1;direction=west;horizontal=0;" vertex="1" parent="1">
          <mxGeometry x="330" y="230" width="70" height="110" as="geometry" />
        </mxCell>
        <mxCell id="aALrUmLxRWbmeuW2mngF-6" value="数据源列表" style="rounded=0;whiteSpace=wrap;html=1;direction=west;horizontal=0;" vertex="1" parent="1">
          <mxGeometry x="440" y="230" width="70" height="110" as="geometry" />
        </mxCell>
        <mxCell id="aALrUmLxRWbmeuW2mngF-7" value="数据源查询" style="rounded=0;whiteSpace=wrap;html=1;direction=west;horizontal=0;" vertex="1" parent="1">
          <mxGeometry x="530" y="230" width="70" height="110" as="geometry" />
        </mxCell>
        <mxCell id="aALrUmLxRWbmeuW2mngF-8" value="数据源连接测试" style="rounded=0;whiteSpace=wrap;html=1;direction=west;horizontal=0;" vertex="1" parent="1">
          <mxGeometry x="620" y="230" width="70" height="110" as="geometry" />
        </mxCell>
      </root>
    </mxGraphModel>
  </diagram>
</mxfile>
